<svg id="Layer_1" data-name="Layer 1" xmlns="http://www.w3.org/2000/svg" width="358" height="72" viewBox="0 0 358 72"><defs><style>.cls-1{fill:#fff;}.cls-2{opacity:0.7;}.cls-3{fill:#fcb11e;}</style></defs><title>BSCdaily-01</title><path class="cls-1" d="M78.6675,11.9116h13.32q10.2986,0,10.2988,7.6177a8.08,8.08,0,0,1-2.894,6.3833q3.873,1.83,3.8725,6.937,0,4.511-3.1489,6.6816a14.6933,14.6933,0,0,1-8.4687,2.17h-12.98Zm6.5962,6.17v5.4473h6.1709a5.5189,5.5189,0,0,0,2.979-.66,2.0853,2.0853,0,0,0,1.0215-1.851,2.5609,2.5609,0,0,0-.979-2.2344,6.5064,6.5064,0,0,0-3.5748-.7022Zm0,11.4053V35.53h5.7026a8.989,8.989,0,0,0,4.1709-.7022,2.4959,2.4959,0,0,0,1.2339-2.3618A2.464,2.464,0,0,0,95.2222,30.19a7.9593,7.9593,0,0,0-3.9151-.7022Z"/><path class="cls-1" d="M130.2842,31.4238A9.4974,9.4974,0,0,0,127.22,30.147q-1.83-.4468-4-1.17a32.5641,32.5641,0,0,1-4.0005-1.6172,7.8551,7.8551,0,0,1-3.0639-2.7022,7.5524,7.5524,0,0,1-1.2344-4.3623,8.0782,8.0782,0,0,1,3.2129-6.3833,12.55,12.55,0,0,1,8.32-2.6811q7.533,0,11.6607,5.49l-4.4258,4.2559a9.84,9.84,0,0,0-7.49-3.5747q-4.4677,0-4.4682,2.8086a2.0872,2.0872,0,0,0,1.2344,1.7876,10.5687,10.5687,0,0,0,3.0639,1.1274,40.1552,40.1552,0,0,1,4,1.1279,32.6543,32.6543,0,0,1,4,1.6172,7.799,7.799,0,0,1,3.064,2.7237,7.5739,7.5739,0,0,1,1.2343,4.3408,8.4392,8.4392,0,0,1-3.2343,6.7451,12.1191,12.1191,0,0,1-8.043,2.7021,16.9148,16.9148,0,0,1-8.5967-2.042,12.9665,12.9665,0,0,1-5.1919-5.2348l4.8091-4a11.1139,11.1139,0,0,0,3.7876,3.7451,9.6718,9.6718,0,0,0,5.0215,1.3618,6.2256,6.2256,0,0,0,3.49-.7876,2.3311,2.3311,0,0,0,1.149-1.9785A2.4039,2.4039,0,0,0,130.2842,31.4238Z"/><path class="cls-1" d="M177.3037,36.0835a13.2253,13.2253,0,0,1-5.3408,4.5327,16.815,16.815,0,0,1-7.3408,1.5957q-6.9367,0-11.0865-4.2344t-4.1489-11.1713a15.16,15.16,0,0,1,4.2979-10.9581,14.7634,14.7634,0,0,1,11.1074-4.4472,16.3588,16.3588,0,0,1,7.2134,1.5532,11.39,11.39,0,0,1,4.83,4.1069l-4.4682,4.0855a8.4083,8.4083,0,0,0-3.2344-2.49,9.4594,9.4594,0,0,0-3.8725-.8725,8.92,8.92,0,0,0-6.5328,2.4472,8.8,8.8,0,0,0-2.4892,6.5748,8.6337,8.6337,0,0,0,8.937,9.0219,10.0021,10.0021,0,0,0,8.2134-3.9575Z"/><g class="cls-2"><path class="cls-1" d="M79.4219,50.1768h3.562a4.0421,4.0421,0,0,1,2.5049.5937,2.0108,2.0108,0,0,1,.73,1.65,2.387,2.387,0,0,1-.3652,1.3311,2.0381,2.0381,0,0,1-1.0439.8085,1.9451,1.9451,0,0,1,1.2788.6915,2.2748,2.2748,0,0,1,.47,1.4873q0,2.5707-3.6143,2.57H79.4219Zm.9262.8613v3.1836h2.8052a2.5637,2.5637,0,0,0,1.5523-.4307,1.3909,1.3909,0,0,0,.5874-1.1875,1.3645,1.3645,0,0,0-.5284-1.1806,3.15,3.15,0,0,0-1.7939-.3848Zm0,4.0312v3.3789h2.6485a3.6489,3.6489,0,0,0,1.9834-.4238,1.4891,1.4891,0,0,0,.6391-1.3369q0-1.6186-2.5048-1.6182Z"/><path class="cls-1" d="M98.4307,55.957a2.5461,2.5461,0,0,0-1.0762-.542q-.6461-.1626-1.396-.372t-1.396-.4366a2.3667,2.3667,0,0,1-1.0767-.7636,2.055,2.055,0,0,1-.43-1.33,2.1347,2.1347,0,0,1,.9194-1.7422,3.83,3.83,0,0,1,2.4072-.7109,3.9217,3.9217,0,0,1,3.2486,1.2529l-.587.5869a3.7084,3.7084,0,0,0-2.6616-.9785,3.6129,3.6129,0,0,0-.77.085,3.7228,3.7228,0,0,0-.7632.2539,1.5468,1.5468,0,0,0-.6069.4834,1.1805,1.1805,0,0,0-.2349.73,1.2109,1.2109,0,0,0,.32.8545,2.0919,2.0919,0,0,0,.835.5342,10.4611,10.4611,0,0,0,1.1284.34q.6131.15,1.2329.3321a7.0706,7.0706,0,0,1,1.1348.4375,2.1187,2.1187,0,0,1,.835.73,1.9993,1.9993,0,0,1,.32,1.1417,2.2578,2.2578,0,0,1-.9263,1.8593,3.6794,3.6794,0,0,1-2.3354.7237,4.8616,4.8616,0,0,1-2.1788-.4952,3.7755,3.7755,0,0,1-1.5-1.2265l.626-.64a3.818,3.818,0,0,0,1.2788,1.0567,3.862,3.862,0,0,0,1.8653.4443,2.6974,2.6974,0,0,0,1.559-.45,1.3838,1.3838,0,0,0,.6592-1.1943A1.2261,1.2261,0,0,0,98.4307,55.957Z"/><path class="cls-1" d="M114.2822,57.9a3.5145,3.5145,0,0,1-1.435,1.1025,4.8175,4.8175,0,0,1-2.0093.4239,4.6684,4.6684,0,0,1-3.4439-1.2715,4.5986,4.5986,0,0,1-1.2788-3.4121,4.6894,4.6894,0,0,1,1.2593-3.3457,4.3632,4.3632,0,0,1,3.333-1.3379,4.8152,4.8152,0,0,1,2.0484.4179,3.7027,3.7027,0,0,1,1.3828,1.03l-.5611.5869a4.379,4.379,0,0,0-1.2719-.874,4.065,4.065,0,0,0-1.6241-.2871A3.4142,3.4142,0,0,0,108.04,51.99a3.9073,3.9073,0,0,0-.9717,2.753,3.5977,3.5977,0,0,0,3.81,3.81,3.6711,3.6711,0,0,0,2.8833-1.2519Z"/><path class="cls-1" d="M129.7817,52.5254h.8482v.9394a2.8861,2.8861,0,0,1,2.4658-1.0957q2.792,0,2.792,3.0655V59.31H135.04V55.5654q0-2.3877-2.2046-2.3877a2.2384,2.2384,0,0,0-1.292.4239,2.6141,2.6141,0,0,0-.9131,1.09V59.31h-.8482Z"/><path class="cls-1" d="M148.5947,58.0176A3.0046,3.0046,0,0,1,145.894,59.44a3.5812,3.5812,0,0,1-2.6093-.9658,3.4223,3.4223,0,0,1-.9917-2.57,3.6485,3.6485,0,0,1,.9067-2.5508,3.24,3.24,0,0,1,2.5244-.998,3.0954,3.0954,0,0,1,2.2378.8486,2.9556,2.9556,0,0,1,.88,2.2305,6.9491,6.9491,0,0,1-.0523.73h-5.5966a2.3005,2.3005,0,0,0,.7763,1.8077,2.9008,2.9008,0,0,0,1.9634.6582,2.5892,2.5892,0,0,0,2.0874-1.1221ZM143.95,53.7715a2.5587,2.5587,0,0,0-.77,1.6113h4.749a2.2709,2.2709,0,0,0-.6328-1.6377,2.2408,2.2408,0,0,0-1.6372-.5937A2.3788,2.3788,0,0,0,143.95,53.7715Z"/><path class="cls-1" d="M162.32,59.31h-.6919l-2.0874-5.5313-2.1,5.5313h-.6655l-2.3091-6.7842h.9263l1.7871,5.4014,2.0225-5.4014h.6914l2.0742,5.44,1.6831-5.44h.8872Z"/><path class="cls-1" d="M174.4072,56.8115a4.267,4.267,0,0,0-1.1284-.457q-.6651-.1758-1.3369-.3848a2.9073,2.9073,0,0,1-1.1353-.64,1.4013,1.4013,0,0,1-.4628-1.0694,1.6331,1.6331,0,0,1,.7041-1.39,3.1593,3.1593,0,0,1,1.9047-.5156,3.7608,3.7608,0,0,1,1.5332.3261,2.5264,2.5264,0,0,1,1.0894.835l-.6133.5488a2.0607,2.0607,0,0,0-.8613-.64,2.9567,2.9567,0,0,0-1.2129-.2608q-1.6443,0-1.644,1.03a.7371.7371,0,0,0,.3325.5938,2.4029,2.4029,0,0,0,.8418.3916q.5082.1362,1.0893.332t1.0894.4053a2.0968,2.0968,0,0,1,.8413.6123,1.4745,1.4745,0,0,1,.3325.9658,1.6237,1.6237,0,0,1-.7563,1.4482,3.4378,3.4378,0,0,1-1.918.4961,3.8849,3.8849,0,0,1-1.82-.4306,2.5674,2.5674,0,0,1-1.1807-1.1612l.6782-.4961a2.2433,2.2433,0,0,0,.9722.9327,2.9752,2.9752,0,0,0,1.4023.3457,2.5573,2.5573,0,0,0,1.1939-.2735.8989.8989,0,0,0,.5283-.8486A.8111.8111,0,0,0,174.4072,56.8115Z"/><path class="cls-1" d="M199.2158,59.31q-.183-.13-.372-.294t-.3194-.2871c-.0869-.082-.2021-.1933-.3457-.332s-.251-.2393-.32-.3a3.18,3.18,0,0,1-1.2852.9648,4.1634,4.1634,0,0,1-1.7021.3653,3.8926,3.8926,0,0,1-2.44-.73,2.2536,2.2536,0,0,1-.9521-1.8652,1.966,1.966,0,0,1,.0781-.5479,2.9308,2.9308,0,0,1,.1758-.4766,2.0494,2.0494,0,0,1,.3193-.45c.1485-.165.2676-.2929.3594-.3847a4.2406,4.2406,0,0,1,.4434-.3653q.3061-.2285.4306-.3134c.0821-.0567.2412-.16.4756-.3125s.3789-.2461.4307-.2813a3.508,3.508,0,0,1-.9-2.0742,1.4311,1.4311,0,0,1,.4961-1.1348,2.1515,2.1515,0,0,1,2.583,0,1.5129,1.5129,0,0,1,.47,1.1739q0,1.0971-1.5527,2.1923a21.5717,21.5717,0,0,0,2.5576,3.0528,6.5877,6.5877,0,0,0,.6846-1.6631,7.1718,7.1718,0,0,0,.2676-1.9121h.8613a7.8388,7.8388,0,0,1-.333,2.2246,6.48,6.48,0,0,1-.9063,1.9375,14.7634,14.7634,0,0,0,2.0479,1.8135Zm-2.9941-.9912a2.5,2.5,0,0,0,1.0234-.77q-1.2261-1.33-2.6484-3.209c-.0781.0527-.2471.1679-.5088.3457s-.4385.3027-.5342.372-.2392.1866-.4307.3526a2.0789,2.0789,0,0,0-.3984.4238,2.85,2.85,0,0,0-.2148.4307,1.38,1.38,0,0,0-.1045.5283,1.5651,1.5651,0,0,0,.6914,1.291,2.9341,2.9341,0,0,0,1.8135.5225A3.2647,3.2647,0,0,0,196.2217,58.3184Zm-2.0225-6.2432a1.4747,1.4747,0,0,0,.1309.3457c.0644.1309.11.2178.1367.2607s.0977.1485.2148.3135.1807.2569.19.2744q1.122-.8349,1.1221-1.5527a.9439.9439,0,0,0-.2412-.665.9962.9962,0,0,0-1.3311-.0137.9379.9379,0,0,0-.2539.7051A1.5813,1.5813,0,0,0,194.1992,52.0752Z"/><path class="cls-1" d="M221.877,59.31h-.8477V58.1748a2.7146,2.7146,0,0,1-.9981.9258,2.8435,2.8435,0,0,1-1.39.34,2.73,2.73,0,0,1-2.0869-.7373,3.2124,3.2124,0,0,1-.6924-2.2636V52.4863h.8486V56.27q0,2.3614,1.9961,2.3614a2.2838,2.2838,0,0,0,1.376-.45,2.8284,2.8284,0,0,0,.9463-1.2325V52.4863h.8477Z"/><path class="cls-1" d="M228.8057,52.5254h.8476V53.53a2.6412,2.6412,0,0,1,2.4141-1.1748,3.0141,3.0141,0,0,1,2.3418.9531,3.5382,3.5382,0,0,1,.8672,2.4785,3.7351,3.7351,0,0,1-.9463,2.6162,3.1423,3.1423,0,0,1-2.4326,1.0371,3.0066,3.0066,0,0,1-2.2442-.8095v3.288h-.8476Zm1.7089,1.1221a2.4973,2.4973,0,0,0-.8613,1.1347V57.418a2.5519,2.5519,0,0,0,4.0117.4306,3.2111,3.2111,0,0,0,.0655-3.9463,2.1963,2.1963,0,0,0-1.7422-.7373A2.347,2.347,0,0,0,230.5146,53.6475Z"/><path class="cls-1" d="M247.0176,58.4092a2.0222,2.0222,0,0,1-.8155.6982,2.9451,2.9451,0,0,1-1.415.3194,3.3041,3.3041,0,0,1-2.46-.9454,3.8694,3.8694,0,0,1,.0723-5.121,3.3674,3.3674,0,0,1,2.4785-1.0049,2.8373,2.8373,0,0,1,2.14.77v-3.34h.8476V59.31h-.8476Zm-.8018-.2539a2.9166,2.9166,0,0,0,.8018-.9981V54.248a2.3517,2.3517,0,0,0-2.1133-1.083,2.5225,2.5225,0,0,0-1.84.7627,2.6644,2.6644,0,0,0-.77,1.9766,2.712,2.712,0,0,0,.7178,1.9766,2.4723,2.4723,0,0,0,1.8525.7373A2.0391,2.0391,0,0,0,246.2158,58.1553Z"/><path class="cls-1" d="M254.7412,53.3086a3.4958,3.4958,0,0,1,1.1934-.6914,4.2031,4.2031,0,0,1,1.4287-.2617,2.8177,2.8177,0,0,1,2.081.7119,2.7437,2.7437,0,0,1,.711,2.0283V59.31h-.8477V58.1875a2.8729,2.8729,0,0,1-2.5576,1.2139,2.72,2.72,0,0,1-1.7744-.5547,1.8023,1.8023,0,0,1-.6777-1.4678q0-2.061,3.3007-2.0615a6.0606,6.0606,0,0,1,1.709.209,2.9424,2.9424,0,0,0-.4443-1.7549,1.8649,1.8649,0,0,0-1.6045-.6065,3.3287,3.3287,0,0,0-2.0615.7959Zm3.7178,4.8271a2.7075,2.7075,0,0,0,.8486-1.0312v-.8086a5.5,5.5,0,0,0-1.5918-.209,4.938,4.938,0,0,0-1.8857.28.9778.9778,0,0,0-.6455.959,1.091,1.091,0,0,0,.5019.9463,2.2449,2.2449,0,0,0,1.2989.3457A2.31,2.31,0,0,0,258.459,58.1357Z"/><path class="cls-1" d="M266.1309,52.5254h1.3574V50.999h.8476v1.5264h2.4268v.8086h-2.4268v3.249a2.85,2.85,0,0,0,.3135,1.5586,1.1626,1.1626,0,0,0,1.03.45,1.3858,1.3858,0,0,0,1.1221-.5742l.5214.5088a2.0939,2.0939,0,0,1-.7558.6269,2.256,2.256,0,0,1-1.044.2481q-2.0361,0-2.0351-2.6231V53.334h-1.3574Z"/><path class="cls-1" d="M282.9482,58.0176a3.0046,3.0046,0,0,1-2.7011,1.4228,3.5781,3.5781,0,0,1-2.6084-.9658,3.4226,3.4226,0,0,1-.9922-2.57,3.6489,3.6489,0,0,1,.9072-2.5508,3.238,3.238,0,0,1,2.5244-.998,3.0942,3.0942,0,0,1,2.2373.8486,2.9559,2.9559,0,0,1,.8809,2.2305,6.9985,6.9985,0,0,1-.0527.73h-5.5967a2.3012,2.3012,0,0,0,.7763,1.8077,2.9,2.9,0,0,0,1.9629.6582,2.5873,2.5873,0,0,0,2.0879-1.1221Zm-4.6445-4.2461a2.5582,2.5582,0,0,0-.7695,1.6113h4.748a2.2661,2.2661,0,0,0-.6318-1.6377,2.2428,2.2428,0,0,0-1.6377-.5937A2.38,2.38,0,0,0,278.3037,53.7715Z"/><path class="cls-1" d="M293.5488,56.8115a4.2778,4.2778,0,0,0-1.1289-.457q-.6649-.1758-1.3369-.3848a2.9053,2.9053,0,0,1-1.1348-.64,1.3991,1.3991,0,0,1-.4638-1.0694,1.634,1.634,0,0,1,.7051-1.39,3.1588,3.1588,0,0,1,1.9043-.5156,3.7615,3.7615,0,0,1,1.5332.3261,2.5219,2.5219,0,0,1,1.0888.835l-.6133.5488a2.057,2.057,0,0,0-.86-.64,2.9613,2.9613,0,0,0-1.2139-.2608q-1.6436,0-1.6435,1.03a.7377.7377,0,0,0,.333.5938,2.3985,2.3985,0,0,0,.8408.3916q.51.1362,1.09.332t1.0889.4053a2.0916,2.0916,0,0,1,.8418.6123,1.4748,1.4748,0,0,1,.333.9658,1.6252,1.6252,0,0,1-.7568,1.4482,3.4378,3.4378,0,0,1-1.918.4961,3.8883,3.8883,0,0,1-1.82-.4306,2.5721,2.5721,0,0,1-1.1807-1.1612l.6787-.4961a2.2475,2.2475,0,0,0,.9717.9327,2.9792,2.9792,0,0,0,1.4033.3457,2.555,2.555,0,0,0,1.1934-.2735.8981.8981,0,0,0,.5283-.8486A.8115.8115,0,0,0,293.5488,56.8115Z"/></g><path class="cls-3" d="M196.4775,11.9116h9.4473a25.21,25.21,0,0,1,8.043,1.1489,12.7542,12.7542,0,0,1,5.3408,3.2129,13.3119,13.3119,0,0,1,2.8516,4.5747,16.179,16.179,0,0,1,.915,5.5752,14.5919,14.5919,0,0,1-4.4258,11.0435q-4.4268,4.2348-13.3633,4.2344h-8.8086Zm6.5957,6.17V35.53H205.84q10.4268,0,10.4258-9.107,0-8.3415-10.4258-8.3413Z"/><path class="cls-3" d="M234.9,22.5083q3.2769-3.405,9.7451-3.4048a8.9872,8.9872,0,0,1,6.6816,2.4043,9.2272,9.2272,0,0,1,2.3829,6.7881V41.7012h-6.1709v-2a6.3005,6.3005,0,0,1-2.4043,1.5742,9.16,9.16,0,0,1-3.5528.6807,8.4784,8.4784,0,0,1-5.873-1.9786,6.7056,6.7056,0,0,1-2.2129-5.2558,6.0392,6.0392,0,0,1,2.8721-5.4473,13.1029,13.1029,0,0,1,7.1709-1.83,11.9975,11.9975,0,0,1,4,.5532,2.8563,2.8563,0,0,0-.8506-2.4047,4.192,4.192,0,0,0-2.7237-.7447,9.5165,9.5165,0,0,0-3.0859.4468,12.6737,12.6737,0,0,0-3.042,1.6812Zm10.7881,13.4053a4.42,4.42,0,0,0,1.8506-1.7876V33.1045a9.6021,9.6021,0,0,0-3.3614-.5532q-4.2978,0-4.2988,2.17a1.5921,1.5921,0,0,0,.7881,1.4048,4.0069,4.0069,0,0,0,2.1914.51A5.7147,5.7147,0,0,0,245.6885,35.9136Z"/><path class="cls-3" d="M266.8984,11.5073a3.6355,3.6355,0,0,1,2.5108-.8725,3.5727,3.5727,0,0,1,2.4687.8725,2.8117,2.8117,0,0,1,.9785,2.1914,2.9225,2.9225,0,0,1-.9785,2.2554,3.52,3.52,0,0,1-2.4687.894,3.5964,3.5964,0,0,1-2.5528-.8725,2.9687,2.9687,0,0,1-.9365-2.2769A2.812,2.812,0,0,1,266.8984,11.5073Zm-.5957,8.0645h6.1709V41.7012h-6.1709Z"/><path class="cls-3" d="M285.1953,10.6348h6.1709V41.7012h-6.1709Z"/><path class="cls-3" d="M313.6621,50.2129h-6.6807l4.5528-10.3838L300.9375,19.5718H308.13l6.4258,12.852,4.9795-12.852h6.5966Z"/><rect class="cls-3" x="6.0511" y="44.6908" width="18.237" height="18.237" transform="translate(68.9788 38.6397) rotate(90)"/><rect class="cls-3" x="23.6235" y="-6.5102" width="16.7207" height="51.8656" transform="translate(51.4064 -12.5613) rotate(90)"/><rect class="cls-3" x="41.1969" y="11.0622" width="16.7207" height="51.8656" transform="translate(99.1146 73.9899) rotate(180)"/></svg>