<svg width="188" height="47" viewBox="0 0 188 47" fill="none" xmlns="http://www.w3.org/2000/svg">
<path d="M10.0341 0.12793C10.9229 0.218655 11.8147 0.289302 12.7006 0.403081C16.8822 0.939502 20.5969 2.56612 23.8446 5.28293C24.8299 6.10541 24.9884 7.13313 24.2728 7.98685C23.5933 8.79743 22.5313 8.84056 21.6012 8.09542C17.4239 4.74898 12.6836 3.42677 7.39422 4.05813C7.21882 4.0797 7.04562 4.11762 6.64839 4.18604C12.9408 9.01978 16.3265 15.2761 16.3413 23.1239C16.356 31.0007 12.999 37.2815 6.65649 42.1614C7.2822 42.2566 7.73766 42.3577 8.19828 42.3912C13.411 42.7712 18.1182 41.4133 22.0058 37.8504C28.1773 32.1987 29.952 25.2039 27.6747 17.1657C27.2988 15.8383 26.6429 14.5756 25.9944 13.3463C25.2891 12.0078 25.7983 11.1957 26.6886 10.6298C27.5413 10.0869 28.6048 10.4848 29.1944 11.5608C32.8904 18.3281 33.4461 25.3489 30.3345 32.4247C27.0711 39.8449 21.3528 44.3589 13.3955 45.8559C12.2414 46.073 11.0541 46.1124 9.8823 46.2336H9.72827C9.45411 46.189 9.18069 46.1087 8.90652 46.1065C6.5231 46.0864 4.25317 45.5004 2.02156 44.7188C1.07085 44.3857 0.252788 43.9008 0.00294796 42.8069V42.4953C0.30364 41.568 0.976512 41.0704 1.84026 40.68C4.60324 39.43 6.90191 37.5567 8.72965 35.1242C11.5781 31.3353 12.9305 27.0481 12.6526 22.2925C12.2105 14.6775 8.61247 9.1053 1.83805 5.68376C0.993463 5.25913 0.300692 4.7936 0 3.86627V3.55468C0.24984 2.55001 0.94998 1.98706 1.87785 1.70299C3.24644 1.28951 4.61651 0.855222 6.01458 0.569659C7.23135 0.322023 8.48718 0.267736 9.72827 0.12793H10.0341Z" fill="#D76625"/>
<path d="M49.53 16.555H49.9611C49.989 16.5511 50.0175 16.5537 50.0442 16.5627C50.0709 16.5717 50.0952 16.5869 50.1152 16.607C50.1351 16.6271 50.1502 16.6517 50.1591 16.6786C50.168 16.7056 50.1706 16.7343 50.1667 16.7625V30.8458C50.1706 30.874 50.168 30.9027 50.1591 30.9296C50.1502 30.9566 50.1351 30.9811 50.1152 31.0012C50.0952 31.0214 50.0709 31.0365 50.0442 31.0456C50.0175 31.0546 49.989 31.0572 49.9611 31.0533H49.5698C49.5419 31.0572 49.5136 31.0545 49.487 31.0454C49.4604 31.0363 49.4363 31.0211 49.4165 31.0009C49.3968 30.9808 49.382 30.9563 49.3733 30.9293C49.3646 30.9024 49.3622 30.8738 49.3663 30.8458V18.171C49.3663 18.1293 49.3516 18.1048 49.3243 18.0966C49.2971 18.0884 49.2764 18.107 49.2624 18.1479L45.4242 24.1774C45.3992 24.2212 45.3635 24.2579 45.3206 24.2839C45.2776 24.3099 45.2288 24.3245 45.1788 24.3262H44.9731C44.9229 24.3243 44.874 24.3097 44.8308 24.2837C44.7877 24.2577 44.7517 24.2212 44.7263 24.1774L40.8475 18.171C40.8335 18.1293 40.8136 18.1152 40.7856 18.1293C40.7715 18.1375 40.7602 18.1497 40.753 18.1644C40.7457 18.1791 40.743 18.1956 40.745 18.2119V30.8458C40.7491 30.8739 40.7466 30.9026 40.7377 30.9296C40.7289 30.9566 40.7139 30.9811 40.694 31.0013C40.6742 31.0214 40.6499 31.0366 40.6232 31.0456C40.5965 31.0546 40.568 31.0573 40.5401 31.0533H40.1488C40.1209 31.0572 40.0924 31.0546 40.0657 31.0456C40.039 31.0365 40.0147 31.0214 39.9947 31.0012C39.9748 30.9811 39.9598 30.9566 39.9508 30.9296C39.9419 30.9027 39.9393 30.874 39.9432 30.8458V16.7625C39.9393 16.7343 39.9419 16.7056 39.9508 16.6786C39.9598 16.6517 39.9748 16.6271 39.9947 16.607C40.0147 16.5869 40.039 16.5717 40.0657 16.5627C40.0924 16.5537 40.1209 16.5511 40.1488 16.555H40.5799C40.6299 16.5561 40.6788 16.57 40.722 16.5953C40.7651 16.6207 40.8012 16.6567 40.8268 16.7L45.0152 23.204C45.0233 23.2112 45.0327 23.2167 45.043 23.2201C45.0532 23.2236 45.0641 23.2249 45.0749 23.2241C45.086 23.2251 45.0972 23.2238 45.1078 23.2204C45.1185 23.2169 45.1283 23.2114 45.1368 23.204L49.2831 16.7C49.3087 16.6567 49.3448 16.6207 49.3879 16.5953C49.4311 16.57 49.48 16.5561 49.53 16.555Z" fill="white"/>
<path d="M55.4603 30.4634C54.8036 29.9598 54.3336 29.2482 54.1257 28.4429C54.0386 28.0938 53.987 27.7368 53.9716 27.3772C53.952 26.9831 53.9419 26.4687 53.9414 25.8341C53.9414 25.1847 53.9515 24.6668 53.9716 24.2806C53.9864 23.9308 54.038 23.5835 54.1257 23.2447C54.3264 22.4441 54.795 21.738 55.4522 21.2458C56.1155 20.7416 56.9262 20.4897 57.8843 20.4902C58.8423 20.4907 59.6589 20.7431 60.334 21.2473C60.9976 21.7291 61.4619 22.4408 61.6385 23.2462C61.7099 23.5804 61.7543 23.9199 61.7711 24.2613C61.7922 24.6336 61.8028 25.1584 61.8028 25.8356C61.8028 26.5391 61.7925 27.0753 61.7711 27.4397C61.7539 27.7776 61.7096 28.1136 61.6385 28.4443C61.4526 29.2574 60.9814 29.9751 60.3119 30.4649C59.6353 30.9681 58.818 31.2199 57.8599 31.2204C56.9161 31.2194 56.1162 30.9671 55.4603 30.4634ZM59.8631 29.8409C60.3987 29.4131 60.7658 28.8067 60.8985 28.1305C60.9499 27.8191 60.9773 27.504 60.9803 27.1883C60.9941 26.7674 61.0015 26.3212 61.0024 25.8497C61.0024 25.3389 60.9943 24.883 60.9803 24.4725C60.9777 24.1705 60.9504 23.8693 60.8985 23.5719C60.7658 22.8957 60.3987 22.2894 59.8631 21.8615C59.3226 21.4267 58.6556 21.2091 57.8622 21.2086C57.0819 21.2086 56.4248 21.4262 55.8907 21.8615C55.3596 22.2917 54.9965 22.8976 54.8656 23.5719C54.7816 23.9304 54.7418 24.6874 54.7418 25.8497C54.7418 27.0232 54.7816 27.7832 54.8656 28.1283C54.978 28.8073 55.3362 29.42 55.8708 29.8476C56.4039 30.276 57.0672 30.4896 57.8607 30.4886C58.6542 30.4877 59.3216 30.2717 59.8631 29.8409Z" fill="white"/>
<path d="M66.401 30.4634C65.7443 29.9598 65.2743 29.2482 65.0663 28.4429C64.9796 28.0938 64.9282 27.7367 64.913 27.3772C64.8924 26.9831 64.8823 26.4687 64.8828 25.8341C64.8828 25.1847 64.8929 24.6668 64.913 24.2806C64.9276 23.9308 64.979 23.5836 65.0663 23.2447C65.2668 22.444 65.7355 21.7378 66.3929 21.2458C67.0557 20.7416 67.8664 20.4897 68.825 20.4902C69.7836 20.4907 70.6004 20.7431 71.2755 21.2473C71.9386 21.7296 72.4029 22.441 72.58 23.2462C72.6515 23.5803 72.6957 23.9199 72.7119 24.2613C72.734 24.6331 72.7436 25.1589 72.7436 25.8356C72.7436 26.5391 72.734 27.0753 72.7119 27.4397C72.6953 27.7776 72.6512 28.1137 72.58 28.4443C72.3939 29.2573 71.9227 29.9749 71.2534 30.4649C70.5768 30.9681 69.7593 31.2199 68.8007 31.2204C67.8573 31.2194 67.0574 30.9671 66.401 30.4634ZM70.8046 29.8409C71.3388 29.4125 71.7046 28.8062 71.8364 28.1305C71.8878 27.8191 71.9151 27.504 71.9182 27.1883C71.9314 26.7674 71.9403 26.322 71.9403 25.8497C71.9403 25.3389 71.9314 24.883 71.9182 24.4725C71.9155 24.1705 71.8882 23.8693 71.8364 23.5719C71.7046 22.8963 71.3388 22.29 70.8046 21.8615C70.2641 21.4267 69.5969 21.2091 68.8029 21.2086C68.0232 21.2086 67.3662 21.4262 66.8322 21.8615C66.3008 22.2916 65.9374 22.8975 65.8063 23.5719C65.7228 23.9304 65.6817 24.6896 65.6832 25.8497C65.6832 27.0232 65.7242 27.7827 65.8063 28.1283C65.9419 28.8467 66.2772 29.4198 66.8123 29.8476C67.3473 30.2755 68.0106 30.4891 68.8022 30.4886C69.5966 30.4916 70.2641 30.2757 70.8046 29.8409Z" fill="white"/>
<path d="M82.5749 21.475C83.2176 22.1165 83.5394 22.962 83.5404 24.0116V30.8465C83.5443 30.8747 83.5417 30.9034 83.5327 30.9303C83.5238 30.9573 83.5087 30.9818 83.4888 31.0019C83.4689 31.0221 83.4446 31.0372 83.4178 31.0463C83.3911 31.0553 83.3627 31.0579 83.3347 31.054H82.9456C82.9177 31.0579 82.8892 31.0553 82.8625 31.0463C82.8358 31.0372 82.8115 31.0221 82.7915 31.0019C82.7716 30.9818 82.7566 30.9573 82.7476 30.9303C82.7387 30.9034 82.7361 30.8747 82.74 30.8465V24.1536C82.74 23.2984 82.4801 22.5979 81.9603 22.052C81.4404 21.5062 80.7627 21.2335 79.9269 21.234C79.0391 21.234 78.3242 21.5 77.7823 22.032C77.2403 22.5639 76.9701 23.258 76.9716 24.1142V30.845C76.9755 30.8732 76.9729 30.9019 76.964 30.9289C76.955 30.9558 76.94 30.9803 76.92 31.0005C76.9001 31.0206 76.8758 31.0357 76.8491 31.0448C76.8223 31.0538 76.7939 31.0564 76.766 31.0525H76.3754C76.3474 31.0564 76.319 31.0538 76.2922 31.0448C76.2655 31.0357 76.2412 31.0206 76.2213 31.0005C76.2013 30.9803 76.1863 30.9558 76.1774 30.9289C76.1684 30.9019 76.1658 30.8732 76.1697 30.845V20.8644C76.1658 20.8363 76.1684 20.8075 76.1774 20.7806C76.1863 20.7536 76.2013 20.7291 76.2213 20.709C76.2412 20.6888 76.2655 20.6737 76.2922 20.6646C76.319 20.6556 76.3474 20.653 76.3754 20.6569H76.766C76.7939 20.653 76.8223 20.6556 76.8491 20.6646C76.8758 20.6737 76.9001 20.6888 76.92 20.709C76.94 20.7291 76.955 20.7536 76.964 20.7806C76.9729 20.8075 76.9755 20.8363 76.9716 20.8644V21.9799C76.9716 22.0215 76.9812 22.0461 77.0018 22.0543C77.0224 22.0624 77.0401 22.0506 77.0534 22.023C77.3509 21.5448 77.7735 21.1588 78.2746 20.9076C78.7875 20.6458 79.386 20.5147 80.0699 20.5142C81.0977 20.5127 81.9327 20.8329 82.5749 21.475Z" fill="white"/>
<path d="M92.0796 20.8013C92.1901 20.8422 92.2233 20.9329 92.1835 21.0698L92.0361 21.4847C91.9941 21.6231 91.9123 21.6573 91.7885 21.5881C91.4591 21.4739 91.1111 21.4246 90.7633 21.4431C90.2514 21.4363 89.7498 21.5881 89.3262 21.8781C88.9001 22.1705 88.5571 22.5702 88.3312 23.0375C88.0882 23.5331 87.9649 24.0797 87.9716 24.6326V30.8458C87.9755 30.874 87.9729 30.9027 87.964 30.9297C87.955 30.9567 87.94 30.9812 87.92 31.0013C87.9001 31.0214 87.8758 31.0366 87.8491 31.0456C87.8223 31.0546 87.7939 31.0573 87.766 31.0533H87.3754C87.3474 31.0573 87.319 31.0546 87.2923 31.0456C87.2655 31.0366 87.2412 31.0214 87.2213 31.0013C87.2013 30.9812 87.1863 30.9567 87.1774 30.9297C87.1684 30.9027 87.1658 30.874 87.1697 30.8458V20.8638C87.1658 20.8356 87.1684 20.8069 87.1774 20.7799C87.1863 20.753 87.2013 20.7284 87.2213 20.7083C87.2412 20.6882 87.2655 20.673 87.2923 20.664C87.319 20.655 87.3474 20.6523 87.3754 20.6563H87.766C87.7939 20.6523 87.8223 20.655 87.8491 20.664C87.8758 20.673 87.9001 20.6882 87.92 20.7083C87.94 20.7284 87.955 20.753 87.964 20.7799C87.9729 20.8069 87.9755 20.8356 87.9716 20.8638V22.4165C87.9716 22.4582 87.9819 22.4827 88.0018 22.4909C88.0217 22.4991 88.0401 22.4805 88.0534 22.4381C88.3139 21.8904 88.7099 21.4197 89.2031 21.0713C89.6931 20.7369 90.2736 20.5637 90.865 20.5753C91.3477 20.5738 91.756 20.6526 92.0796 20.8013Z" fill="white"/>
<path d="M95.6081 30.4634C94.9516 29.9596 94.4816 29.2481 94.2734 28.4429C94.1866 28.0938 94.1352 27.7367 94.1201 27.3772C94.1004 26.9831 94.0903 26.4687 94.0898 25.8341C94.0898 25.1847 94.0999 24.6668 94.1201 24.2806C94.1346 23.9308 94.186 23.5836 94.2734 23.2447C94.4741 22.4441 94.9427 21.738 95.5999 21.2458C96.2632 20.7416 97.0739 20.4897 98.032 20.4902C98.9901 20.4907 99.807 20.7431 100.483 21.2473C101.146 21.7293 101.61 22.4409 101.787 23.2462C101.859 23.5803 101.903 23.9199 101.919 24.2613C101.941 24.6331 101.951 25.1589 101.951 25.8356C101.951 26.5391 101.941 27.0753 101.919 27.4397C101.902 27.7776 101.858 28.1137 101.787 28.4443C101.601 29.2573 101.13 29.9749 100.46 30.4649C99.7839 30.9681 98.9665 31.2199 98.0085 31.2204C97.0641 31.2194 96.264 30.9671 95.6081 30.4634ZM100.012 29.8409C100.546 29.4125 100.912 28.8062 101.043 28.1305C101.095 27.8191 101.122 27.504 101.125 27.1883C101.138 26.7674 101.147 26.322 101.147 25.8497C101.147 25.3389 101.138 24.883 101.125 24.4725C101.123 24.1705 101.095 23.8693 101.043 23.5719C100.912 22.8963 100.546 22.29 100.012 21.8615C99.4711 21.4267 98.8042 21.2091 98.0107 21.2086C97.2299 21.2086 96.5728 21.4262 96.0392 21.8615C95.5079 22.2916 95.1445 22.8975 95.0133 23.5719C94.9298 23.9304 94.8887 24.6896 94.8902 25.8497C94.8902 27.0232 94.9312 27.7827 95.0133 28.1283C95.1263 28.8072 95.4847 29.4198 96.0193 29.8476C96.5524 30.276 97.2157 30.4896 98.0092 30.4886C98.8027 30.4877 99.4694 30.2717 100.009 29.8409H100.012Z" fill="white"/>
<path d="M106.589 30.4638C105.935 29.9622 105.471 29.2488 105.277 28.4433C105.113 27.8365 105.031 26.9669 105.031 25.8346C105.031 24.7707 105.113 23.9075 105.277 23.2452C105.465 22.4455 105.926 21.7383 106.58 21.2477C107.244 20.7435 108.055 20.4917 109.012 20.4922C109.957 20.4922 110.772 20.7373 111.456 21.2277C112.14 21.718 112.577 22.329 112.768 23.0608C112.823 23.2358 112.858 23.4163 112.872 23.5992V23.6401C112.872 23.7375 112.81 23.7985 112.686 23.8267L112.318 23.8676H112.277C112.181 23.8676 112.12 23.8059 112.092 23.6817L112.031 23.3917C111.908 22.7705 111.569 22.2529 111.015 21.8389C110.461 21.425 109.787 21.2175 108.993 21.2165C108.199 21.2165 107.536 21.4307 107.003 21.859C106.474 22.278 106.121 22.883 106.015 23.5531C105.894 24.1078 105.833 24.8763 105.833 25.8584C105.833 26.7974 105.888 27.5569 105.997 28.1369C106.127 28.8091 106.487 29.414 107.012 29.8473C107.541 30.2826 108.202 30.5 108.994 30.4995C109.787 30.499 110.464 30.2888 111.027 29.8689C111.587 29.4475 111.922 28.9269 112.032 28.3072L112.053 28.2046C112.066 28.0663 112.148 28.0105 112.3 28.0388L112.647 28.1012C112.784 28.129 112.846 28.2049 112.832 28.3288C112.817 28.3681 112.81 28.4101 112.812 28.4522C112.809 28.5231 112.795 28.5931 112.77 28.6597C112.607 29.4034 112.179 30.0176 111.488 30.5025C110.797 30.9874 109.972 31.2293 109.014 31.2283C108.055 31.2224 107.247 30.9675 106.589 30.4638Z" fill="white"/>
<path d="M115.885 30.8458V16.7625C115.881 16.7343 115.883 16.7056 115.892 16.6786C115.901 16.6517 115.916 16.6271 115.936 16.607C115.956 16.5869 115.98 16.5717 116.007 16.5627C116.034 16.5537 116.062 16.5511 116.09 16.555H116.481C116.509 16.5511 116.537 16.5537 116.564 16.5627C116.591 16.5717 116.615 16.5869 116.635 16.607C116.655 16.6271 116.67 16.6517 116.679 16.6786C116.688 16.7056 116.69 16.7343 116.686 16.7625V25.8752C116.685 25.8874 116.688 25.8996 116.693 25.9106C116.698 25.9216 116.707 25.9309 116.717 25.9377C116.737 25.9511 116.762 25.9444 116.79 25.9168L121.84 20.7596C121.872 20.7264 121.91 20.7001 121.952 20.6823C121.995 20.6645 122.04 20.6556 122.086 20.6563H122.602C122.683 20.6563 122.735 20.6808 122.756 20.7306C122.776 20.7804 122.756 20.8377 122.703 20.9069L120.118 23.6197C120.104 23.6326 120.095 23.6497 120.091 23.6685C120.087 23.6872 120.09 23.7066 120.098 23.7238L123.238 30.8071L123.258 30.8896C123.258 31.0004 123.196 31.0555 123.072 31.0555H122.663C122.613 31.0576 122.563 31.0424 122.521 31.0123C122.48 30.9822 122.45 30.939 122.436 30.8896L119.539 24.3009C119.51 24.2466 119.477 24.2384 119.435 24.2808L116.725 27.0145C116.712 27.0283 116.702 27.0446 116.695 27.0625C116.688 27.0803 116.685 27.0994 116.686 27.1186V30.8458C116.69 30.8739 116.687 30.9026 116.678 30.9296C116.669 30.9566 116.654 30.9811 116.634 31.0012C116.614 31.0214 116.59 31.0365 116.563 31.0456C116.536 31.0546 116.508 31.0572 116.48 31.0532H116.089C116.062 31.0571 116.033 31.0544 116.007 31.0453C115.98 31.0362 115.956 31.021 115.936 31.0009C115.916 30.9808 115.901 30.9563 115.892 30.9294C115.883 30.9025 115.881 30.8739 115.885 30.8458Z" fill="white"/>
<path d="M131.987 30.6918C131.315 30.3433 130.755 29.8079 130.375 29.1487C129.992 28.4859 129.801 27.7194 129.801 26.8494V20.7388C129.801 19.8821 129.992 19.1228 130.375 18.461C130.754 17.8027 131.314 17.2699 131.987 16.9276C132.675 16.5686 133.479 16.3892 134.399 16.3892C135.301 16.3892 136.098 16.5686 136.79 16.9276C137.462 17.2679 138.022 17.7967 138.404 18.4506C138.786 19.1065 138.978 19.8625 138.978 20.7187V20.7388C138.983 20.7673 138.981 20.7965 138.972 20.824C138.963 20.8516 138.948 20.8767 138.928 20.8972C138.908 20.9178 138.884 20.9333 138.856 20.9425C138.829 20.9516 138.8 20.9542 138.772 20.95L138.383 20.9701C138.246 20.9701 138.177 20.9083 138.177 20.7834V20.7224C138.177 19.6446 137.828 18.7745 137.13 18.1122C136.432 17.4499 135.523 17.1184 134.403 17.1179C133.254 17.1179 132.334 17.4494 131.642 18.1122C130.951 18.775 130.605 19.6451 130.605 20.7224V26.8947C130.605 27.9715 130.951 28.8448 131.642 29.5146C132.334 30.1844 133.255 30.5193 134.403 30.5193C135.524 30.5193 136.433 30.1844 137.13 29.5146C137.827 28.8448 138.176 27.9715 138.177 26.8947V26.8531C138.177 26.7289 138.246 26.6672 138.383 26.6672L138.772 26.6872C138.909 26.6872 138.978 26.7497 138.978 26.8739C138.978 27.7306 138.786 28.4901 138.403 29.1524C138.022 29.8104 137.462 30.3445 136.79 30.6918C136.098 31.0567 135.301 31.2394 134.399 31.2399C133.482 31.2394 132.678 31.0567 131.987 30.6918Z" fill="white"/>
<path d="M148.184 21.4121C148.78 22.0264 149.078 22.8719 149.078 23.9487V30.8461C149.082 30.8743 149.079 30.903 149.07 30.93C149.061 30.9569 149.046 30.9815 149.026 31.0016C149.006 31.0217 148.982 31.0369 148.955 31.0459C148.928 31.0549 148.9 31.0575 148.872 31.0536H148.481C148.454 31.0575 148.425 31.0549 148.398 31.0459C148.372 31.0369 148.347 31.0217 148.327 31.0016C148.307 30.9815 148.292 30.9569 148.283 30.93C148.275 30.903 148.272 30.8743 148.276 30.8461V29.8102C148.277 29.7995 148.275 29.7887 148.27 29.7793C148.265 29.77 148.256 29.7628 148.246 29.7589C148.226 29.7522 148.201 29.7626 148.173 29.7901C147.813 30.2729 147.326 30.6429 146.766 30.8573C146.149 31.1028 145.49 31.2257 144.827 31.2194C143.883 31.2194 143.087 30.9879 142.437 30.5248C141.787 30.0618 141.461 29.3338 141.461 28.3407C141.461 27.3185 141.834 26.521 142.58 25.9484C143.327 25.3758 144.356 25.0892 145.669 25.0888H148.193C148.204 25.0901 148.215 25.0888 148.225 25.0851C148.236 25.0815 148.245 25.0754 148.253 25.0675C148.261 25.0595 148.267 25.0499 148.271 25.0393C148.274 25.0287 148.276 25.0174 148.274 25.0062V23.9287C148.274 23.1002 148.049 22.4411 147.598 21.9513C147.147 21.4615 146.442 21.2161 145.483 21.2151C144.746 21.2151 144.138 21.3705 143.658 21.6813C143.178 21.9922 142.883 22.4099 142.774 22.9344C142.733 23.0727 142.651 23.1352 142.527 23.1203L142.097 23.0593C142.044 23.0467 141.994 23.0212 141.953 22.985C141.935 22.9732 141.921 22.9556 141.913 22.9349C141.905 22.9142 141.905 22.8915 141.911 22.8704C142.048 22.1536 142.441 21.5772 143.09 21.1414C143.739 20.7057 144.55 20.4883 145.522 20.4893C146.701 20.4903 147.588 20.7979 148.184 21.4121ZM147.271 29.8318C147.942 29.39 148.277 28.7686 148.276 27.9674V25.8584C148.277 25.8473 148.276 25.836 148.272 25.8254C148.269 25.8147 148.263 25.8051 148.255 25.7972C148.247 25.7892 148.237 25.7832 148.227 25.7795C148.216 25.7758 148.205 25.7746 148.194 25.7759H145.71C144.685 25.7759 143.853 26.0002 143.216 26.4489C142.58 26.8976 142.262 27.5153 142.263 28.3021C142.263 29.0204 142.508 29.5658 143 29.9381C143.491 30.3104 144.127 30.4966 144.909 30.4966C145.813 30.4946 146.6 30.273 147.271 29.8318Z" fill="white"/>
<path d="M160.253 24.281C160.273 24.6677 160.283 25.1855 160.283 25.8345C160.283 26.4695 160.273 26.9871 160.253 27.3872C160.238 27.7507 160.186 28.1117 160.099 28.4648C159.929 29.2593 159.485 29.9674 158.847 30.4637C158.204 30.9669 157.418 31.2188 156.488 31.2192C155.902 31.23 155.323 31.0908 154.804 30.8147C154.321 30.5536 153.911 30.1725 153.615 29.7074C153.596 29.6845 153.57 29.6694 153.541 29.665C153.519 29.665 153.509 29.6866 153.509 29.7275V34.9472C153.513 34.9753 153.511 35.004 153.502 35.031C153.493 35.0579 153.478 35.0824 153.458 35.1025C153.438 35.1225 153.413 35.1376 153.387 35.1466C153.36 35.1555 153.331 35.158 153.304 35.1539H152.914C152.887 35.158 152.858 35.1555 152.831 35.1466C152.805 35.1376 152.78 35.1225 152.76 35.1025C152.74 35.0824 152.725 35.0579 152.716 35.031C152.707 35.004 152.705 34.9753 152.709 34.9472V20.8639C152.705 20.8357 152.708 20.807 152.716 20.78C152.725 20.753 152.74 20.7285 152.76 20.7084C152.78 20.6883 152.805 20.6731 152.831 20.6641C152.858 20.6551 152.887 20.6524 152.914 20.6564H153.304C153.331 20.6524 153.36 20.6551 153.387 20.6641C153.413 20.6731 153.438 20.6883 153.458 20.7084C153.478 20.7285 153.493 20.753 153.502 20.78C153.511 20.807 153.513 20.8357 153.509 20.8639V22.0024C153.509 22.0433 153.519 22.0641 153.541 22.0641C153.57 22.0605 153.596 22.0458 153.615 22.0232C153.909 21.546 154.323 21.1562 154.816 20.8936C155.331 20.621 155.906 20.4824 156.488 20.4906C157.418 20.4906 158.202 20.7385 158.838 21.2342C159.474 21.7305 159.92 22.4329 160.101 23.2228C160.187 23.5695 160.238 23.924 160.253 24.281ZM159.421 27.4943C159.449 27.1909 159.463 26.6522 159.463 25.8783C159.463 25.0916 159.453 24.5497 159.432 24.2527C159.414 23.9763 159.37 23.7023 159.299 23.4347C159.182 22.7965 158.83 22.2268 158.314 21.8403C157.78 21.4253 157.143 21.2179 156.405 21.2179C155.68 21.2179 155.081 21.4286 154.609 21.85C154.141 22.2636 153.82 22.82 153.695 23.4347C153.623 23.7025 153.575 23.9763 153.551 24.2527C153.523 24.5502 153.509 25.0784 153.51 25.8374C153.51 26.6108 153.524 27.1455 153.551 27.4415C153.577 27.7313 153.625 28.0188 153.695 28.3012C153.807 28.9152 154.126 29.4711 154.598 29.874C155.077 30.2889 155.679 30.4959 156.405 30.4949C157.131 30.4939 157.75 30.2904 158.262 29.8844C158.763 29.496 159.115 28.944 159.258 28.3227C159.344 28.0539 159.399 27.7759 159.421 27.4943Z" fill="white"/>
<path d="M163.773 18.1499C163.687 18.0636 163.619 17.9604 163.573 17.8466C163.528 17.7328 163.505 17.6108 163.508 17.488C163.505 17.3607 163.526 17.234 163.572 17.1154C163.618 16.9967 163.687 16.8886 163.775 16.7973C163.863 16.706 163.968 16.6334 164.085 16.5839C164.201 16.5343 164.326 16.5088 164.452 16.5088C164.578 16.5088 164.703 16.5343 164.819 16.5839C164.936 16.6334 165.041 16.706 165.129 16.7973C165.217 16.8886 165.286 16.9967 165.331 17.1154C165.377 17.234 165.399 17.3607 165.396 17.488C165.399 17.611 165.376 17.7333 165.33 17.8472C165.284 17.961 165.215 18.0641 165.128 18.1499C164.944 18.3233 164.702 18.4198 164.451 18.4198C164.199 18.4198 163.957 18.3233 163.773 18.1499ZM164.001 30.8262V20.8426C164.001 20.7043 164.068 20.6352 164.205 20.6352H164.595C164.623 20.6312 164.652 20.6338 164.678 20.6429C164.705 20.6519 164.729 20.667 164.749 20.6872C164.769 20.7073 164.784 20.7318 164.793 20.7588C164.802 20.7858 164.805 20.8145 164.801 20.8426V30.8262C164.805 30.8543 164.802 30.883 164.793 30.91C164.784 30.9369 164.769 30.9614 164.749 30.9815C164.729 31.0015 164.705 31.0166 164.678 31.0255C164.652 31.0345 164.623 31.037 164.595 31.0329H164.205C164.068 31.0329 164.001 30.9645 164.001 30.8262Z" fill="white"/>
<path d="M172.827 21.3596H170.343C170.332 21.3583 170.321 21.3595 170.31 21.3633C170.3 21.367 170.29 21.3731 170.282 21.3811C170.274 21.3892 170.268 21.3989 170.265 21.4096C170.261 21.4203 170.26 21.4317 170.262 21.4429V28.3195C170.262 29.0631 170.432 29.5837 170.774 29.8811C171.115 30.1786 171.649 30.3273 172.374 30.3273H172.827C172.855 30.3234 172.883 30.326 172.91 30.335C172.937 30.3441 172.961 30.3592 172.981 30.3793C173.001 30.3995 173.016 30.424 173.025 30.451C173.034 30.4779 173.037 30.5066 173.033 30.5348V30.8449C173.037 30.8731 173.034 30.9018 173.025 30.9288C173.016 30.9558 173.001 30.9803 172.981 31.0004C172.961 31.0205 172.937 31.0357 172.91 31.0447C172.883 31.0537 172.855 31.0564 172.827 31.0524H172.311C171.396 31.0524 170.695 30.8657 170.208 30.4924C169.721 30.1191 169.478 29.4429 169.48 28.4637V21.4429C169.481 21.4317 169.48 21.4203 169.476 21.4096C169.473 21.3989 169.467 21.3892 169.459 21.3811C169.451 21.3731 169.441 21.367 169.431 21.3633C169.42 21.3595 169.409 21.3583 169.398 21.3596H168.145C168.117 21.3637 168.089 21.3612 168.062 21.3523C168.035 21.3433 168.011 21.3283 167.991 21.3082C167.971 21.2881 167.956 21.2636 167.947 21.2367C167.938 21.2097 167.935 21.181 167.939 21.1529V20.8636C167.935 20.8354 167.938 20.8067 167.947 20.7798C167.956 20.7528 167.971 20.7283 167.991 20.7081C168.011 20.688 168.035 20.6729 168.062 20.6638C168.089 20.6548 168.117 20.6522 168.145 20.6561H169.398C169.409 20.6574 169.42 20.6562 169.431 20.6525C169.441 20.6488 169.451 20.6428 169.459 20.6349C169.466 20.6269 169.472 20.6173 169.476 20.6067C169.48 20.5961 169.481 20.5847 169.48 20.5736V18.2326C169.476 18.2044 169.478 18.1757 169.487 18.1488C169.496 18.1218 169.511 18.0973 169.531 18.0773C169.551 18.0572 169.575 18.0421 169.602 18.0332C169.629 18.0243 169.657 18.0217 169.685 18.0258H170.054C170.082 18.0217 170.11 18.0243 170.137 18.0332C170.164 18.0421 170.188 18.0572 170.208 18.0773C170.228 18.0973 170.243 18.1218 170.252 18.1488C170.261 18.1757 170.263 18.2044 170.259 18.2326V20.5736C170.258 20.5847 170.259 20.5961 170.263 20.6067C170.267 20.6173 170.273 20.6269 170.28 20.6349C170.288 20.6428 170.298 20.6488 170.308 20.6525C170.319 20.6562 170.33 20.6574 170.341 20.6561H172.825C172.853 20.6522 172.881 20.6548 172.908 20.6638C172.935 20.6729 172.959 20.688 172.979 20.7081C172.999 20.7283 173.014 20.7528 173.023 20.7798C173.032 20.8067 173.034 20.8354 173.03 20.8636V21.1529C173.034 21.1808 173.031 21.2092 173.023 21.2359C173.014 21.2626 172.999 21.2869 172.979 21.3068C172.96 21.3268 172.936 21.342 172.909 21.3511C172.883 21.3603 172.855 21.3632 172.827 21.3596Z" fill="white"/>
<path d="M182.235 21.4121C182.832 22.0264 183.13 22.8719 183.129 23.9487V30.8461C183.133 30.8743 183.131 30.903 183.122 30.93C183.113 30.9569 183.098 30.9815 183.078 31.0016C183.058 31.0217 183.033 31.0369 183.007 31.0459C182.98 31.0549 182.952 31.0575 182.924 31.0536H182.533C182.505 31.0575 182.477 31.0549 182.45 31.0459C182.423 31.0369 182.399 31.0217 182.379 31.0016C182.359 30.9815 182.344 30.9569 182.335 30.93C182.326 30.903 182.323 30.8743 182.327 30.8461V29.8102C182.329 29.7995 182.327 29.7886 182.321 29.7793C182.316 29.77 182.307 29.7628 182.297 29.7589C182.277 29.7522 182.252 29.7626 182.223 29.7901C181.864 30.2729 181.376 30.6429 180.817 30.8573C180.199 31.1027 179.541 31.2256 178.878 31.2194C177.933 31.2194 177.136 30.9879 176.487 30.5248C175.837 30.0618 175.512 29.3338 175.512 28.3407C175.512 27.3185 175.885 26.521 176.63 25.9484C177.376 25.3758 178.406 25.0892 179.719 25.0888H182.243C182.254 25.0901 182.266 25.0888 182.276 25.0851C182.287 25.0815 182.296 25.0754 182.304 25.0675C182.312 25.0595 182.318 25.0499 182.322 25.0393C182.325 25.0287 182.326 25.0174 182.325 25.0062V23.9287C182.325 23.1002 182.1 22.4411 181.649 21.9513C181.198 21.4615 180.493 21.2161 179.534 21.2151C178.797 21.2151 178.188 21.3705 177.708 21.6813C177.227 21.9922 176.933 22.4099 176.824 22.9344C176.784 23.0727 176.702 23.1352 176.578 23.1203L176.147 23.0593C176.094 23.0464 176.045 23.0209 176.003 22.985C175.985 22.9731 175.971 22.9554 175.963 22.9347C175.956 22.914 175.956 22.8915 175.962 22.8704C176.099 22.1536 176.492 21.5772 177.141 21.1414C177.79 20.7057 178.601 20.4883 179.573 20.4893C180.752 20.4903 181.64 20.7979 182.235 21.4121ZM181.322 29.8318C181.993 29.39 182.328 28.7686 182.327 27.9674V25.8584C182.329 25.8473 182.327 25.836 182.324 25.8254C182.32 25.8147 182.314 25.8051 182.306 25.7972C182.298 25.7892 182.289 25.7832 182.278 25.7795C182.268 25.7758 182.257 25.7746 182.246 25.7759H179.762C178.736 25.7759 177.905 26.0002 177.268 26.4489C176.631 26.8976 176.313 27.5153 176.314 28.3021C176.314 29.0204 176.561 29.5663 177.051 29.9381C177.54 30.3099 178.18 30.4966 178.96 30.4966C179.865 30.4946 180.652 30.273 181.322 29.8318Z" fill="white"/>
<path d="M186.58 30.8458V16.7625C186.576 16.7343 186.579 16.7056 186.588 16.6786C186.596 16.6517 186.612 16.6271 186.631 16.607C186.651 16.5869 186.676 16.5717 186.702 16.5627C186.729 16.5537 186.758 16.5511 186.786 16.555H187.176C187.204 16.5511 187.232 16.5537 187.259 16.5627C187.286 16.5717 187.31 16.5869 187.33 16.607C187.35 16.6271 187.365 16.6517 187.374 16.6786C187.383 16.7056 187.386 16.7343 187.382 16.7625V30.8458C187.386 30.8739 187.383 30.9027 187.374 30.9296C187.365 30.9566 187.35 30.9811 187.33 31.0012C187.31 31.0214 187.286 31.0365 187.259 31.0456C187.232 31.0546 187.204 31.0572 187.176 31.0533H186.786C186.758 31.0572 186.729 31.0546 186.702 31.0456C186.676 31.0365 186.651 31.0214 186.631 31.0012C186.612 30.9811 186.596 30.9566 186.588 30.9296C186.579 30.9027 186.576 30.8739 186.58 30.8458Z" fill="white"/>
</svg>
