<svg width="13" height="9" viewBox="0 0 13 9" fill="none" xmlns="http://www.w3.org/2000/svg">
<path d="M4.57812 8.78906L0.664062 4.89844C0.554688 4.78906 0.5 4.64844 0.5 4.47656C0.5 4.30469 0.554688 4.16406 0.664062 4.05469L1.53125 3.21094C1.64062 3.08594 1.77344 3.02344 1.92969 3.02344C2.10156 3.02344 2.25 3.08594 2.375 3.21094L5 5.83594L10.625 0.210938C10.75 0.0859375 10.8906 0.0234375 11.0469 0.0234375C11.2188 0.0234375 11.3594 0.0859375 11.4688 0.210938L12.3359 1.05469C12.4453 1.16406 12.5 1.30469 12.5 1.47656C12.5 1.64844 12.4453 1.78906 12.3359 1.89844L5.42188 8.78906C5.3125 8.91406 5.17188 8.97656 5 8.97656C4.82812 8.97656 4.6875 8.91406 4.57812 8.78906Z" fill="#84DD51"/>
</svg>
